<mxfile host="Electron" agent="Mozilla/5.0 (Windows NT 10.0; Win64; x64) AppleWebKit/537.36 (KHTML, like Gecko) draw.io/28.2.5 Chrome/138.0.7204.251 Electron/37.6.1 Safari/537.36" version="28.2.5">
  <diagram id="C5RBs43oDa-KdzZeNtuy" name="Page-1">
    <mxGraphModel dx="83" dy="1051" grid="0" gridSize="10" guides="1" tooltips="1" connect="1" arrows="1" fold="1" page="1" pageScale="1" pageWidth="1700" pageHeight="1100" background="light-dark(#626A6C,#1E4A76)" math="0" shadow="0" adaptiveColors="simple">
      <root>
        <mxCell id="WIyWlLk6GJQsqaUBKTNV-0" />
        <mxCell id="WIyWlLk6GJQsqaUBKTNV-1" parent="WIyWlLk6GJQsqaUBKTNV-0" />
        <mxCell id="XL1AVDFbVfTAMq6u_eOz-0" value="" style="edgeStyle=orthogonalEdgeStyle;rounded=0;orthogonalLoop=1;jettySize=auto;html=1;entryX=0;entryY=0.5;entryDx=0;entryDy=0;strokeColor=#FFFFFF;" parent="WIyWlLk6GJQsqaUBKTNV-1" source="DBazjf379_bZvMSUQni4-8" target="DBazjf379_bZvMSUQni4-15" edge="1">
          <mxGeometry relative="1" as="geometry">
            <mxPoint x="2100" y="567.87" as="sourcePoint" />
          </mxGeometry>
        </mxCell>
        <mxCell id="XL1AVDFbVfTAMq6u_eOz-2" value="" style="edgeStyle=orthogonalEdgeStyle;rounded=0;orthogonalLoop=1;jettySize=auto;html=1;entryX=0;entryY=0.5;entryDx=0;entryDy=0;exitX=1;exitY=0.5;exitDx=0;exitDy=0;strokeWidth=2;endSize=12;fillColor=#647687;strokeColor=#FBFBFB;" parent="WIyWlLk6GJQsqaUBKTNV-1" source="DBazjf379_bZvMSUQni4-0" target="DBazjf379_bZvMSUQni4-9" edge="1">
          <mxGeometry relative="1" as="geometry">
            <mxPoint x="2150" y="314.9999999999999" as="targetPoint" />
            <mxPoint x="2060" y="262.5" as="sourcePoint" />
          </mxGeometry>
        </mxCell>
        <mxCell id="XL1AVDFbVfTAMq6u_eOz-5" style="edgeStyle=orthogonalEdgeStyle;rounded=0;orthogonalLoop=1;jettySize=auto;html=1;entryX=0;entryY=0.5;entryDx=0;entryDy=0;exitX=1;exitY=0.5;exitDx=0;exitDy=0;strokeWidth=2;endSize=12;fillColor=#647687;strokeColor=#FBFBFB;" parent="WIyWlLk6GJQsqaUBKTNV-1" source="DBazjf379_bZvMSUQni4-15" target="DBazjf379_bZvMSUQni4-16" edge="1">
          <mxGeometry relative="1" as="geometry">
            <mxPoint x="2660" y="425.0526315789473" as="sourcePoint" />
            <mxPoint x="3160" y="365" as="targetPoint" />
          </mxGeometry>
        </mxCell>
        <mxCell id="XL1AVDFbVfTAMq6u_eOz-9" style="edgeStyle=orthogonalEdgeStyle;rounded=0;orthogonalLoop=1;jettySize=auto;html=1;entryX=0;entryY=0.5;entryDx=0;entryDy=0;exitX=1;exitY=0.5;exitDx=0;exitDy=0;strokeWidth=2;endSize=12;fillColor=#647687;strokeColor=#FBFBFB;" parent="WIyWlLk6GJQsqaUBKTNV-1" source="DBazjf379_bZvMSUQni4-16" target="DBazjf379_bZvMSUQni4-18" edge="1">
          <mxGeometry relative="1" as="geometry">
            <mxPoint x="2520" y="903.0526315789475" as="sourcePoint" />
            <mxPoint x="3180" y="770" as="targetPoint" />
          </mxGeometry>
        </mxCell>
        <mxCell id="XL1AVDFbVfTAMq6u_eOz-12" value="&lt;div&gt;&lt;font&gt;Live Alerts&amp;nbsp;&lt;/font&gt;&lt;span&gt;if threshold is reached&lt;/span&gt;&lt;/div&gt;" style="rounded=1;whiteSpace=wrap;html=1;fontSize=20;glass=0;strokeWidth=1;shadow=1;labelBackgroundColor=none;" parent="WIyWlLk6GJQsqaUBKTNV-1" vertex="1">
          <mxGeometry x="3060" y="681.75" width="280" height="90" as="geometry" />
        </mxCell>
        <mxCell id="XL1AVDFbVfTAMq6u_eOz-17" value="" style="edgeStyle=orthogonalEdgeStyle;rounded=0;orthogonalLoop=1;jettySize=auto;html=1;exitX=0.5;exitY=1;exitDx=0;exitDy=0;entryX=0.5;entryY=0;entryDx=0;entryDy=0;endSize=12;fillColor=#647687;strokeColor=#FBFBFB;" parent="WIyWlLk6GJQsqaUBKTNV-1" source="DBazjf379_bZvMSUQni4-10" target="DBazjf379_bZvMSUQni4-16" edge="1">
          <mxGeometry relative="1" as="geometry">
            <mxPoint x="3240" y="397.5000000000002" as="sourcePoint" />
          </mxGeometry>
        </mxCell>
        <mxCell id="DBazjf379_bZvMSUQni4-7" style="edgeStyle=orthogonalEdgeStyle;rounded=0;orthogonalLoop=1;jettySize=auto;html=1;entryX=0.5;entryY=0;entryDx=0;entryDy=0;strokeWidth=2;endSize=12;fillColor=#647687;strokeColor=#FBFBFB;" parent="WIyWlLk6GJQsqaUBKTNV-1" source="DBazjf379_bZvMSUQni4-0" target="DBazjf379_bZvMSUQni4-8" edge="1">
          <mxGeometry relative="1" as="geometry" />
        </mxCell>
        <mxCell id="DBazjf379_bZvMSUQni4-0" value="&lt;font&gt;Data Sources&lt;/font&gt;&lt;div&gt;&lt;font&gt;(Videos,&amp;nbsp;&lt;span&gt;Transcripts,&amp;nbsp;&lt;/span&gt;&lt;span&gt;APIs,&amp;nbsp;&lt;/span&gt;&lt;/font&gt;&lt;/div&gt;&lt;div&gt;&lt;font&gt;&lt;span&gt;CSV files)&lt;/span&gt;&lt;/font&gt;&lt;/div&gt;" style="rounded=1;whiteSpace=wrap;html=1;fontSize=20;labelBackgroundColor=none;shadow=1;" parent="WIyWlLk6GJQsqaUBKTNV-1" vertex="1">
          <mxGeometry x="1756" y="258" width="260" height="114" as="geometry" />
        </mxCell>
        <mxCell id="DBazjf379_bZvMSUQni4-8" value="&lt;font&gt;Users with wearable Device&lt;/font&gt;&lt;div&gt;&lt;font&gt;(Fitbit, Apple,&lt;/font&gt;&lt;/div&gt;&lt;div&gt;&lt;font&gt;Watch, Simulator)&lt;/font&gt;&lt;/div&gt;" style="rounded=1;whiteSpace=wrap;html=1;fontSize=20;labelBackgroundColor=none;shadow=1;" parent="WIyWlLk6GJQsqaUBKTNV-1" vertex="1">
          <mxGeometry x="1826" y="571.28" width="220" height="130" as="geometry" />
        </mxCell>
        <mxCell id="DBazjf379_bZvMSUQni4-11" value="" style="edgeStyle=orthogonalEdgeStyle;rounded=0;orthogonalLoop=1;jettySize=auto;html=1;strokeWidth=2;endSize=12;fillColor=#647687;strokeColor=#FBFBFB;" parent="WIyWlLk6GJQsqaUBKTNV-1" source="DBazjf379_bZvMSUQni4-9" target="DBazjf379_bZvMSUQni4-10" edge="1">
          <mxGeometry relative="1" as="geometry" />
        </mxCell>
        <mxCell id="DBazjf379_bZvMSUQni4-9" value="&lt;div&gt;&lt;font&gt;Fetch data via API calls&lt;/font&gt;&lt;/div&gt;&lt;div&gt;&lt;font&gt;&lt;br&gt;&lt;/font&gt;&lt;/div&gt;&lt;div&gt;&lt;font&gt;Extract Transcript&amp;nbsp;&lt;/font&gt;&lt;/div&gt;&lt;div&gt;&lt;font&gt;&lt;br&gt;&lt;/font&gt;&lt;/div&gt;&lt;div&gt;&lt;font&gt;Tokenize and Segment text&lt;/font&gt;&lt;/div&gt;&lt;div&gt;&lt;font&gt;Assign timestamps&lt;/font&gt;&lt;/div&gt;" style="rounded=1;whiteSpace=wrap;html=1;fontSize=20;labelBackgroundColor=none;shadow=1;" parent="WIyWlLk6GJQsqaUBKTNV-1" vertex="1">
          <mxGeometry x="2158.5" y="235" width="280" height="160" as="geometry" />
        </mxCell>
        <mxCell id="DBazjf379_bZvMSUQni4-10" value="&lt;div&gt;&lt;span&gt;&lt;font&gt;Run inteference with Falconsas/Fear_mongering_detection&lt;/font&gt;&lt;/span&gt;&lt;/div&gt;&lt;div&gt;&lt;font&gt;Extract fear score&lt;/font&gt;&lt;/div&gt;&lt;div&gt;&lt;font&gt;&lt;br&gt;&lt;/font&gt;&lt;/div&gt;&lt;div&gt;&lt;span&gt;Create a time series of Fear Score vs timestamps&lt;/span&gt;&lt;/div&gt;" style="rounded=1;whiteSpace=wrap;html=1;fontSize=20;labelBackgroundColor=none;shadow=1;" parent="WIyWlLk6GJQsqaUBKTNV-1" vertex="1">
          <mxGeometry x="2550" y="235" width="370" height="160" as="geometry" />
        </mxCell>
        <mxCell id="DBazjf379_bZvMSUQni4-15" value="&lt;div&gt;&lt;font&gt;Authorize/authenticate to connect to data provider&lt;/font&gt;&lt;/div&gt;&lt;div&gt;&lt;font&gt;&lt;br&gt;&lt;/font&gt;&lt;/div&gt;&lt;div&gt;&lt;font&gt;Fetch user data via API calls&lt;/font&gt;&lt;/div&gt;&lt;div&gt;&lt;font&gt;&lt;br&gt;&lt;/font&gt;&lt;/div&gt;&lt;div&gt;&lt;font&gt;Extract Heartrate and&lt;/font&gt;&lt;span&gt;&amp;nbsp;timestamps&lt;/span&gt;&lt;/div&gt;&lt;div&gt;&lt;span&gt;&lt;br&gt;&lt;/span&gt;&lt;/div&gt;&lt;div&gt;&lt;span&gt;Create a a time series of HR / time&lt;/span&gt;&lt;/div&gt;" style="rounded=1;whiteSpace=wrap;html=1;fontSize=20;labelBackgroundColor=none;shadow=1;" parent="WIyWlLk6GJQsqaUBKTNV-1" vertex="1">
          <mxGeometry x="2138" y="508.03" width="321" height="258" as="geometry" />
        </mxCell>
        <mxCell id="DBazjf379_bZvMSUQni4-16" value="&lt;div&gt;&lt;span&gt;Correlation Engine&lt;/span&gt;&lt;/div&gt;&lt;div&gt;&lt;span&gt;&lt;br&gt;&lt;/span&gt;&lt;/div&gt;&lt;div&gt;&lt;span&gt;Align timestamps for both data sources&lt;/span&gt;&lt;/div&gt;&lt;div&gt;&lt;span&gt;Create time series from correlated results&lt;/span&gt;&lt;/div&gt;&lt;div&gt;&lt;span&gt;&lt;br&gt;&lt;/span&gt;&lt;/div&gt;&lt;div&gt;&lt;span&gt;&amp;nbsp;Develop Fear score&amp;nbsp; / Heartrate&amp;nbsp;&lt;/span&gt;&lt;span&gt;vs&amp;nbsp;&lt;/span&gt;&lt;span&gt;Time duration Analysis&lt;/span&gt;&lt;span&gt;&lt;/span&gt;&lt;/div&gt;&lt;div&gt;&lt;span&gt;&lt;br&gt;&lt;/span&gt;&lt;/div&gt;&lt;div&gt;&lt;span&gt;Re-calibrate Segmetation / Smoothing&lt;/span&gt;&lt;span&gt;&lt;/span&gt;&lt;/div&gt;&lt;div&gt;&lt;span&gt;&lt;br&gt;&lt;/span&gt;&lt;/div&gt;&lt;div&gt;&lt;span&gt;Determine Fear Threshold&lt;/span&gt;&lt;/div&gt;" style="rounded=1;whiteSpace=wrap;html=1;fontSize=20;labelBackgroundColor=none;shadow=1;" parent="WIyWlLk6GJQsqaUBKTNV-1" vertex="1">
          <mxGeometry x="2552.5" y="477.69" width="365" height="318.68" as="geometry" />
        </mxCell>
        <mxCell id="DBazjf379_bZvMSUQni4-18" value="&lt;div&gt;&lt;span&gt;UI display /&amp;nbsp;&lt;/span&gt;&lt;span&gt;Visualization&amp;nbsp;&lt;/span&gt;&lt;/div&gt;&lt;div&gt;&lt;span&gt;&lt;br&gt;&lt;/span&gt;&lt;/div&gt;&lt;div&gt;&lt;span&gt;Time series graphs&lt;/span&gt;&lt;/div&gt;&lt;div&gt;&lt;span&gt;Reports / Trends&lt;/span&gt;&lt;/div&gt;" style="rounded=1;whiteSpace=wrap;html=1;fontSize=20;labelBackgroundColor=none;shadow=1;" parent="WIyWlLk6GJQsqaUBKTNV-1" vertex="1">
          <mxGeometry x="3060" y="475" width="270" height="124.5" as="geometry" />
        </mxCell>
        <mxCell id="DBazjf379_bZvMSUQni4-19" style="edgeStyle=orthogonalEdgeStyle;rounded=0;orthogonalLoop=1;jettySize=auto;html=1;entryX=0;entryY=0.5;entryDx=0;entryDy=0;exitX=1;exitY=0.5;exitDx=0;exitDy=0;strokeWidth=2;endSize=12;fillColor=#647687;strokeColor=#FBFBFB;" parent="WIyWlLk6GJQsqaUBKTNV-1" source="DBazjf379_bZvMSUQni4-16" target="XL1AVDFbVfTAMq6u_eOz-12" edge="1">
          <mxGeometry relative="1" as="geometry">
            <mxPoint x="2940" y="555" as="sourcePoint" />
            <mxPoint x="3035" y="555" as="targetPoint" />
          </mxGeometry>
        </mxCell>
      </root>
    </mxGraphModel>
  </diagram>
</mxfile>
